HIERARCHY
ROOT Hips
{
	OFFSET 0.000000 0.000000 0.000000 
	CHANNELS 6 Xposition Yposition Zposition Zrotation Yrotation Xrotation
	JOINT LeftUpLeg
	{
		OFFSET 1.363060 -1.794630 0.839290 
		CHANNELS 3 Zrotation Yrotation Xrotation
		JOINT LeftLeg
		{
			OFFSET 2.448110 -6.726130 0.000000 
			CHANNELS 3 Zrotation Yrotation Xrotation
			JOINT LeftFoot
			{
				OFFSET 2.562200 -7.039590 0.000000 
				CHANNELS 3 Zrotation Yrotation Xrotation
				JOINT LeftToeBase
				{
					OFFSET 0.157640 -0.433110 2.322550 
					CHANNELS 3 Zrotation Yrotation Xrotation
					End Site
					{
						OFFSET 0.000000 0.000000 0.000000 
					}
				}
			}
		}
	}
	JOINT RightUpLeg
	{
		OFFSET -1.305520 -1.794630 0.839290 
		CHANNELS 3 Zrotation Yrotation Xrotation
		JOINT RightLeg
		{
			OFFSET -2.542530 -6.985550 0.000000 
			CHANNELS 3 Zrotation Yrotation Xrotation
			JOINT RightFoot
			{
				OFFSET -2.568260 -7.056230 0.000000 
				CHANNELS 3 Zrotation Yrotation Xrotation
				JOINT RightToeBase
				{
					OFFSET -0.164730 -0.452590 2.363150 
					CHANNELS 3 Zrotation Yrotation Xrotation
					End Site
					{
						OFFSET 0.000000 0.000000 0.000000 
					}
				}
			}
		}
	}
	JOINT Spine
	{
		OFFSET 0.028270 2.035590 -0.193380 
		CHANNELS 3 Zrotation Yrotation Xrotation
		JOINT Spine1
		{
			OFFSET 0.056720 2.048850 -0.042750 
			CHANNELS 3 Zrotation Yrotation Xrotation
			JOINT Neck1
			{
				OFFSET -0.054170 1.746240 0.172020 
				CHANNELS 3 Zrotation Yrotation Xrotation
				JOINT Head
				{
					OFFSET 0.104070 1.761360 -0.123970 
					CHANNELS 3 Zrotation Yrotation Xrotation
					End Site
					{
						OFFSET 0.000000 0.000000 0.000000 
					}
				}
			}
			JOINT LeftArm
			{
				OFFSET 3.362410 1.200890 -0.311210 
				CHANNELS 3 Zrotation Yrotation Xrotation
				JOINT LeftForeArm
				{
					OFFSET 4.983000 -0.000000 -0.000000 
					CHANNELS 3 Zrotation Yrotation Xrotation
					JOINT LeftHand
					{
						OFFSET 3.483560 -0.000000 -0.000000 
						CHANNELS 3 Zrotation Yrotation Xrotation
						JOINT LeftHandIndex1
						{
							OFFSET 0.715260 -0.000000 -0.000000 
							CHANNELS 3 Zrotation Yrotation Xrotation
							End Site
							{
								OFFSET 0.000000 0.000000 0.000000 
							}
						}
					}
				}
			}
			JOINT RightArm
			{
				OFFSET -3.136600 1.374050 -0.404650 
				CHANNELS 3 Zrotation Yrotation Xrotation
				JOINT RightForeArm
				{
					OFFSET -5.241900 -0.000000 -0.000000 
					CHANNELS 3 Zrotation Yrotation Xrotation
					JOINT RightHand
					{
						OFFSET -3.444170 -0.000000 -0.000000 
						CHANNELS 3 Zrotation Yrotation Xrotation
						JOINT RightHandIndex1
						{
							OFFSET -0.622530 -0.000000 -0.000000 
							CHANNELS 3 Zrotation Yrotation Xrotation
							End Site
							{
								OFFSET 0.000000 0.000000 0.000000 
							}
						}
					}
				}
			}
		}
	}
}
MOTION
Frames: 7
Frame Time: 0.041667
12.996199 17.997742 1.369485 -44.034952 -85.783085 50.908068 -11.029115 12.069517 -23.676689 0.921461 10.511533 27.837887 -2.856653 11.703557 -2.301670 0.156400 2.548200 7.023400 15.873774 -13.011594 -26.483608 -2.113690 -12.244458 32.531009 5.839126 -21.060344 -6.505704 -0.575200 -4.856900 13.500800 1.308306 2.428430 -3.577969 -1.913645 0.973285 -8.318257 4.239470 -2.627251 25.807355 -0.639600 -0.380000 13.362200 2.678396 -15.454574 33.521332 43.968536 -46.271304 -25.720285 0.552990 -2.019035 -25.594811 -7.125000 0.000000 0.000000 -0.530055 8.460181 39.464457 -62.598150 54.901679 -37.387904 -0.097495 0.554978 -48.312975 7.125000 0.000000 0.000000 
12.990517 17.987887 1.342703 -44.003355 -85.742302 50.873014 -10.956781 12.253268 -23.851765 0.983761 10.588651 28.108739 -2.758370 11.390703 -2.271441 0.147200 2.472700 6.813800 16.018493 -13.239288 -26.638970 -2.144251 -12.278306 32.669463 5.762699 -20.831843 -6.482237 -0.542900 -4.720900 13.114200 1.260331 2.409042 -3.601936 -1.914598 0.957937 -8.335514 4.256723 -2.646794 25.851846 -0.615500 -0.389400 13.409400 2.976855 -14.472867 33.864794 41.229092 -44.858623 -23.428213 0.539987 -2.101444 -24.468109 -7.125000 0.000000 0.000000 -0.946651 7.869704 39.793217 -58.924339 53.901809 -34.303370 -0.098216 0.573142 -47.336690 7.125000 0.000000 0.000000 
12.986460 17.976177 1.314878 -44.756784 -85.755983 51.611673 -10.900307 12.536810 -24.099097 1.069359 10.693906 28.475156 -2.641946 11.020271 -2.245151 0.130300 2.326500 6.408800 16.167805 -13.425800 -26.787126 -2.176904 -12.317593 32.829001 5.683971 -20.597936 -6.508581 -0.506700 -4.563100 12.666600 1.223256 2.433448 -3.568176 -1.883992 0.973373 -8.287154 4.270696 -2.603941 25.712068 -0.588400 -0.377700 13.362600 3.242566 -13.495713 34.075646 38.720312 -43.445433 -21.383053 0.496352 -2.184404 -23.325251 -7.125000 0.000000 0.000000 -1.305195 7.295456 39.978014 -55.341282 52.771978 -31.335475 -0.093740 0.579216 -45.639029 7.125000 0.000000 0.000000 
12.981474 17.964583 1.285429 -45.215128 -85.700853 52.060172 -10.808017 12.838180 -24.373031 1.163064 10.802771 28.858482 -2.516825 10.620943 -2.141703 0.110200 2.140100 5.893000 16.373027 -13.632171 -26.938233 -2.210534 -12.361791 33.005517 5.606376 -20.373003 -6.602304 -0.476000 -4.424800 12.275100 1.196889 2.426897 -3.562633 -1.845744 0.971431 -8.263239 4.198291 -2.575183 25.636681 -0.605900 -0.373600 13.345700 3.410301 -12.622535 34.257281 36.311863 -41.976901 -19.469673 0.469046 -2.225250 -22.252786 -7.125000 0.000000 0.000000 -1.554436 6.726004 40.112987 -51.936150 51.541176 -28.556909 -0.085344 0.570844 -42.998394 7.125000 0.000000 0.000000 
12.979735 17.948931 1.252386 -45.690094 -85.666240 52.515631 -10.769203 13.452156 -24.840838 1.280021 10.925899 29.315555 -2.272250 9.846377 -1.819159 0.100800 2.047600 5.637200 16.620775 -13.921897 -27.157566 -2.253606 -12.412340 33.213317 5.528898 -20.147816 -6.704948 -0.451100 -4.309100 11.947800 1.169564 2.428825 -3.551461 -1.804202 0.974653 -8.305912 4.372257 -2.642495 25.590338 -0.514500 -0.396600 13.355300 3.453890 -11.808713 34.213846 34.352846 -40.704795 -17.961070 0.494259 -2.304440 -21.937416 -7.125000 0.000000 0.000000 -1.645447 6.227298 39.942208 -49.027445 50.358912 -26.230083 -0.081196 0.537974 -38.844713 7.125000 0.000000 0.000000 
12.976952 17.933975 1.220966 -46.184469 -85.633139 52.992952 -10.714987 13.914953 -25.249841 1.405025 11.066529 29.821797 -2.073766 9.212521 -1.646277 0.087900 1.912000 5.262500 16.841993 -14.168608 -27.364351 -2.300601 -12.468151 33.439663 5.445049 -19.903669 -6.808340 -0.424800 -4.182900 11.591700 1.138072 2.436347 -3.545536 -1.764332 0.981429 -8.324102 4.427847 -2.662101 25.506400 -0.474400 -0.407300 13.343100 3.577239 -10.954083 34.296161 32.423960 -39.365962 -16.513441 0.502001 -2.370870 -21.385959 -7.125000 0.000000 0.000000 -1.839709 5.683406 39.923193 -46.248958 49.105148 -24.055430 -0.079658 0.520451 -36.026210 7.125000 0.000000 0.000000 
12.974634 17.917395 1.188967 -46.676605 -85.601842 53.464553 -10.671365 14.434663 -25.713461 1.547273 11.223912 30.392590 -1.848687 8.490381 -1.446165 0.075600 1.773200 4.879200 17.072579 -14.431719 -27.594375 -2.355761 -12.532480 33.700606 5.355161 -19.641895 -6.927247 -0.398500 -4.053300 11.226600 1.107869 2.447779 -3.539660 -1.720928 0.991407 -8.350864 4.488223 -2.683477 25.390370 -0.432800 -0.419600 13.316000 3.670035 -10.131520 34.313904 30.668156 -38.076040 -15.232744 0.518086 -2.434063 -20.926763 -7.125000 0.000000 0.000000 -2.004929 5.146594 39.852998 -43.749793 47.866034 -22.143732 -0.080265 0.500853 -33.360873 7.125000 0.000000 0.000000 
